<svg width="29" height="30" viewBox="0 0 29 30" fill="none" xmlns="http://www.w3.org/2000/svg">
<path d="M8.6709 14.1251C8.66983 13.3841 8.8154 12.6503 9.09921 11.9658C9.38303 11.2814 9.79944 10.6598 10.3243 10.137C10.8494 9.61416 11.4727 9.20034 12.1583 8.91939C12.844 8.63847 13.5784 8.49596 14.3194 8.50008C17.4131 8.52354 19.8896 11.0938 19.8896 14.1954V14.7501C19.8896 17.547 20.4755 19.172 20.9911 20.0626C21.0459 20.1574 21.0749 20.265 21.0749 20.3745C21.075 20.4841 21.0464 20.5917 20.9917 20.6866C20.9371 20.7816 20.8585 20.8605 20.7639 20.9155C20.6692 20.9706 20.5616 20.9997 20.4522 21.0001H8.10846C7.9989 20.9997 7.89133 20.9706 7.79672 20.9155C7.70197 20.8605 7.62338 20.7816 7.56876 20.6866C7.51413 20.5917 7.48544 20.4841 7.4856 20.3745C7.48575 20.265 7.51459 20.1574 7.56937 20.0626C8.08496 19.172 8.6709 17.547 8.6709 14.7501V14.1251Z" fill="#1C1C1C" fill-opacity="0.1"/>
<path fill-rule="evenodd" clip-rule="evenodd" d="M8.0459 14.7501V14.1251C8.0459 14.1251 8.04414 12.8786 8.52185 11.7265C8.52185 11.7265 8.99956 10.5743 9.88337 9.69411C9.88337 9.69411 10.7672 8.81397 11.9213 8.34105C11.9213 8.34105 13.0755 7.86814 14.3228 7.87508C14.3228 7.87508 15.591 7.88468 16.7459 8.39135C16.7459 8.39135 17.8571 8.87881 18.7124 9.75745C18.7124 9.75745 19.5645 10.6327 20.0318 11.7612C20.0318 11.7612 20.5146 12.9274 20.5146 14.1954V14.7501C20.5146 14.7501 20.5146 17.992 21.5321 19.7494C21.5321 19.7494 21.6996 20.0396 21.6999 20.374C21.6999 20.374 21.7002 20.7083 21.5335 20.9982C21.5335 20.9982 21.3669 21.288 21.0778 21.4559C21.0778 21.4559 20.7887 21.6239 20.4543 21.6251H8.1084C8.1084 21.6251 7.77185 21.6239 7.48274 21.4559C7.48274 21.4559 7.19363 21.288 7.02696 20.9982C7.02696 20.9982 6.8603 20.7083 6.8606 20.374C6.8606 20.374 6.86089 20.0396 7.02807 19.7501C7.02807 19.7501 8.0459 17.992 8.0459 14.7501ZM9.2959 14.7501C9.2959 14.7501 9.2959 18.3277 8.1106 20.3751H20.4499C20.4499 20.3751 19.2646 18.3272 19.2646 14.7501V14.1954C19.2646 14.1954 19.2646 12.1166 17.8168 10.6294C17.8168 10.6294 16.3674 9.1406 14.3158 9.12506C14.3158 9.12506 13.3183 9.11951 12.3953 9.49772C12.3953 9.49772 11.4722 9.87593 10.7654 10.5798C10.7654 10.5798 10.0586 11.2837 9.67654 12.2052C9.67654 12.2052 9.29449 13.1267 9.2959 14.1251V14.7501Z" fill="#1C1C1C"/>
<path d="M17.405 21.625V21C17.405 20.6548 17.1252 20.375 16.78 20.375C16.4348 20.375 16.155 20.6548 16.155 21V21.625C16.155 22.4016 15.6058 22.9508 15.6058 22.9508C15.0566 23.5 14.28 23.5 14.28 23.5C13.5034 23.5 12.9542 22.9508 12.9542 22.9508C12.405 22.4016 12.405 21.625 12.405 21.625V21C12.405 20.6548 12.1252 20.375 11.78 20.375C11.4348 20.375 11.155 20.6548 11.155 21V21.625C11.155 22.9194 12.0703 23.8347 12.0703 23.8347C12.9856 24.75 14.28 24.75 14.28 24.75C15.5744 24.75 16.4897 23.8347 16.4897 23.8347C17.405 22.9194 17.405 21.625 17.405 21.625Z" fill="#1C1C1C"/>
<rect opacity="0.277069" x="8.5" y="0.220001" width="19.57" height="19.57" rx="9.785" fill="#1C1C1C" fill-opacity="0.5"/>
<rect x="15.28" y="7" width="6" height="6" rx="3" fill="#1C1C1C"/>
</svg>
