<svg width="17" height="16" viewBox="0 0 17 16" fill="none" xmlns="http://www.w3.org/2000/svg">
<path fill-rule="evenodd" clip-rule="evenodd" d="M5.88002 3.2C5.88002 2.56348 6.13288 1.95303 6.58297 1.50295C7.03305 1.05286 7.6435 0.800003 8.28002 0.800003C8.91654 0.800003 9.52699 1.05286 9.97708 1.50295C10.4272 1.95303 10.68 2.56348 10.68 3.2V6.4C10.68 7.03652 10.4272 7.64697 9.97708 8.09706C9.52699 8.54715 8.91654 8.8 8.28002 8.8C7.6435 8.8 7.03305 8.54715 6.58297 8.09706C6.13288 7.64697 5.88002 7.03652 5.88002 6.4V3.2ZM9.08002 11.944C10.413 11.7514 11.6319 11.085 12.5135 10.0668C13.3951 9.04858 13.8802 7.74681 13.88 6.4C13.88 6.18783 13.7957 5.98435 13.6457 5.83432C13.4957 5.68429 13.2922 5.6 13.08 5.6C12.8679 5.6 12.6644 5.68429 12.5143 5.83432C12.3643 5.98435 12.28 6.18783 12.28 6.4C12.28 7.46087 11.8586 8.47828 11.1085 9.22843C10.3583 9.97858 9.34089 10.4 8.28002 10.4C7.21916 10.4 6.20174 9.97858 5.4516 9.22843C4.70145 8.47828 4.28002 7.46087 4.28002 6.4C4.28002 6.18783 4.19574 5.98435 4.04571 5.83432C3.89568 5.68429 3.6922 5.6 3.48002 5.6C3.26785 5.6 3.06437 5.68429 2.91434 5.83432C2.76431 5.98435 2.68002 6.18783 2.68002 6.4C2.67984 7.74681 3.16498 9.04858 4.04655 10.0668C4.92811 11.085 6.14705 11.7514 7.48002 11.944V13.6H5.08002C4.86785 13.6 4.66437 13.6843 4.51434 13.8343C4.36431 13.9843 4.28002 14.1878 4.28002 14.4C4.28002 14.6122 4.36431 14.8157 4.51434 14.9657C4.66437 15.1157 4.86785 15.2 5.08002 15.2H11.48C11.6922 15.2 11.8957 15.1157 12.0457 14.9657C12.1957 14.8157 12.28 14.6122 12.28 14.4C12.28 14.1878 12.1957 13.9843 12.0457 13.8343C11.8957 13.6843 11.6922 13.6 11.48 13.6H9.08002V11.944Z" fill="#1C1C1C" fill-opacity="0.2"/>
</svg>
