<svg width="24" height="24" viewBox="0 0 24 24" fill="none" xmlns="http://www.w3.org/2000/svg">
<rect width="24" height="24" rx="8" fill="#E3F5FF"/>
<path fill-rule="evenodd" clip-rule="evenodd" d="M7 10.5C7 10.5 7 9.4831 7.39313 8.55362C7.39313 8.55362 7.77269 7.65624 8.46447 6.96446C8.46447 6.96446 9.15625 6.27269 10.0536 5.89313C10.0536 5.89313 10.9831 5.5 12 5.5C12 5.5 13.0169 5.5 13.9464 5.89313C13.9464 5.89313 14.8438 6.27269 15.5356 6.96446C15.5356 6.96446 16.2273 7.65624 16.6068 8.55362C16.6068 8.55362 17 9.4831 17 10.5V13.5C17 13.5 17 14.5169 16.6068 15.4464C16.6068 15.4464 16.2273 16.3438 15.5356 17.0356C15.5356 17.0356 14.8437 17.7273 13.9464 18.1068C13.9464 18.1068 13.0169 18.5 12 18.5C12 18.5 10.9831 18.5 10.0536 18.1068C10.0536 18.1068 9.15625 17.7273 8.46447 17.0356C8.46447 17.0356 7.77269 16.3437 7.39313 15.4464C7.39313 15.4464 7 14.5169 7 13.5V10.5ZM8 10.5V13.5C8 13.5 8 15.1569 9.17155 16.3285C9.17155 16.3285 10.3432 17.5 12 17.5C12 17.5 13.6569 17.5 14.8285 16.3285C14.8285 16.3285 16 15.1568 16 13.5V10.5C16 10.5 16 8.84315 14.8285 7.67158C14.8285 7.67158 13.6568 6.5 12 6.5C12 6.5 10.3431 6.5 9.17155 7.67158C9.17155 7.67158 8 8.84315 8 10.5Z" fill="#1C1C1C"/>
<path d="M16.5 13H18C18.2761 13 18.5 12.7761 18.5 12.5C18.5 12.2239 18.2761 12 18 12H16.5C16.2239 12 16 12.2239 16 12.5C16 12.7761 16.2239 13 16.5 13Z" fill="#1C1C1C"/>
<path d="M6 13H7.5C7.77614 13 8 12.7761 8 12.5C8 12.2239 7.77614 12 7.5 12H6C5.72386 12 5.5 12.2239 5.5 12.5C5.5 12.7761 5.72386 13 6 13Z" fill="#1C1C1C"/>
<path d="M6 15H7.6125C7.88864 15 8.1125 14.7761 8.1125 14.5C8.1125 14.2239 7.88864 14 7.6125 14H6C5.72386 14 5.5 14.2239 5.5 14.5C5.5 14.7761 5.72386 15 6 15Z" fill="#1C1C1C"/>
<path d="M6 11H18C18.2761 11 18.5 10.7761 18.5 10.5C18.5 10.2239 18.2761 10 18 10H6C5.72386 10 5.5 10.2239 5.5 10.5C5.5 10.7761 5.72386 11 6 11Z" fill="#1C1C1C"/>
<path d="M11.5 12.5V18C11.5 18.2761 11.7239 18.5 12 18.5C12.2761 18.5 12.5 18.2761 12.5 18V12.5C12.5 12.2239 12.2761 12 12 12C11.7239 12 11.5 12.2239 11.5 12.5Z" fill="#1C1C1C"/>
<path d="M16.3875 15H18C18.2762 15 18.5 14.7761 18.5 14.5C18.5 14.2239 18.2762 14 18 14H16.3875C16.1114 14 15.8875 14.2239 15.8875 14.5C15.8875 14.7761 16.1114 15 16.3875 15Z" fill="#1C1C1C"/>
<path d="M7.14948 6.11258L8.63698 7.52507C8.72989 7.6133 8.85314 7.6625 8.98127 7.6625H8.98221L8.9942 7.66233C9.12678 7.6589 9.25253 7.60295 9.34383 7.50679C9.43208 7.41388 9.48128 7.29063 9.48128 7.1625V7.16156L9.48113 7.14957C9.47768 7.01701 9.42173 6.89124 9.32558 6.79993L7.83807 5.38742C7.74515 5.29919 7.62191 5.25 7.49377 5.25L7.48084 5.25016C7.34828 5.25359 7.22251 5.30954 7.1312 5.4057C7.04296 5.49862 6.99377 5.62187 6.99377 5.75L6.99394 5.76293C6.99737 5.89549 7.05332 6.02127 7.14948 6.11258Z" fill="#1C1C1C"/>
<path d="M16.1495 5.38739L14.6683 6.79363C14.5721 6.88494 14.5161 7.01071 14.5127 7.14327L14.5125 7.15625L14.5127 7.16729C14.5154 7.29156 14.5643 7.41035 14.6499 7.5005C14.7412 7.59667 14.867 7.65264 14.9996 7.65608L15.0125 7.65625L15.0236 7.65613C15.1479 7.65339 15.2666 7.60445 15.3568 7.51887L16.838 6.11262C16.9342 6.02131 16.9902 5.89554 16.9936 5.76298L16.9938 5.75L16.9937 5.73896C16.9909 5.61469 16.942 5.4959 16.8564 5.40575C16.7651 5.30958 16.6393 5.25361 16.5068 5.25017L16.4938 5.25L16.4827 5.25012C16.3585 5.25287 16.2397 5.30181 16.1495 5.38739Z" fill="#1C1C1C"/>
</svg>
