<svg width="21" height="20" viewBox="0 0 21 20" fill="none" xmlns="http://www.w3.org/2000/svg">
<path d="M17.2098 11.922C15.9827 12.2661 14.6862 12.2774 13.4532 11.9546C12.2204 11.6319 11.0956 10.9868 10.1944 10.0857C9.29341 9.18456 8.64829 8.05987 8.32554 6.82694C8.00279 5.59402 8.0141 4.29749 8.35816 3.07037C7.14848 3.40714 6.04801 4.05487 5.16651 4.94934C4.28501 5.84365 3.65314 6.95344 3.33408 8.168C3.01487 9.3825 3.01945 10.6595 3.34751 11.8716C3.67543 13.0839 4.31523 14.189 5.20313 15.0771C6.09119 15.9649 7.19623 16.6047 8.40854 16.9327C9.62073 17.2607 10.8977 17.2653 12.1122 16.9461C13.3268 16.6271 14.4365 15.9952 15.3309 15.1137C16.2254 14.2322 16.873 13.1317 17.2098 11.922Z" fill="#1C1C1C" fill-opacity="0.1"/>
<path fill-rule="evenodd" clip-rule="evenodd" d="M17.8119 12.0899L17.8117 12.0909C17.8117 12.0909 17.2529 14.0969 15.7697 15.5588C15.7697 15.5588 14.286 17.0212 12.2712 17.5506C12.2712 17.5506 10.2563 18.0801 8.24534 17.5361C8.24534 17.5361 6.23442 16.992 4.76134 15.5189C4.76134 15.5189 3.28827 14.0459 2.74422 12.0349C2.74422 12.0349 2.20018 10.0239 2.72963 8.00913C2.72963 8.00913 3.25908 5.9943 4.72144 4.51058C4.72144 4.51058 6.1838 3.02687 8.19078 2.46826C8.35047 2.42381 8.52122 2.44463 8.66559 2.52611C8.80997 2.60761 8.91603 2.7431 8.96047 2.90279C8.99109 3.01283 8.99097 3.12915 8.96015 3.23913C8.96015 3.23913 8.4804 4.94985 8.93028 6.66863C8.93028 6.66863 9.38022 8.38744 10.6365 9.64375C10.6365 9.64375 11.8928 10.9001 13.6117 11.35C13.6117 11.35 15.3304 11.7999 17.0412 11.3201C17.1477 11.2903 17.2602 11.2893 17.3673 11.3171L17.3775 11.3198C17.588 11.3784 17.7527 11.5428 17.8117 11.7532C17.8415 11.8597 17.8426 11.9723 17.8148 12.0793L17.8119 12.0899ZM14.8922 14.6686C14.8922 14.6686 15.752 13.8213 16.2419 12.7562C16.2419 12.7562 14.771 12.9456 13.2951 12.5593C13.2951 12.5593 11.2485 12.0236 9.75265 10.5276C9.75265 10.5276 8.25672 9.03175 7.72103 6.98519C7.72103 6.98519 7.33472 5.50926 7.52409 4.03836C7.52409 4.03836 6.45905 4.52832 5.61171 5.38803C5.61171 5.38803 4.38333 6.63438 3.93859 8.32681C3.93859 8.32681 3.49385 10.0193 3.95085 11.7085C3.95085 11.7085 4.40784 13.3977 5.64522 14.6351C5.64522 14.6351 6.88259 15.8724 8.57178 16.3294C8.57178 16.3294 10.261 16.7864 11.9535 16.3417C11.9535 16.3417 13.6459 15.8969 14.8922 14.6686Z" fill="#1C1C1C"/>
</svg>
