<svg width="17" height="16" viewBox="0 0 17 16" fill="none" xmlns="http://www.w3.org/2000/svg">
<path d="M14.6296 14.3563C14.5363 14.4483 14.4106 14.4999 14.2796 14.5001C14.1468 14.4995 14.0193 14.4481 13.9234 14.3563L11.2234 11.6501C10.0862 12.6052 8.62428 13.0845 7.14239 12.9879C5.66049 12.8913 4.27309 12.2264 3.26954 11.1317C2.26599 10.0371 1.72378 8.59729 1.756 7.1126C1.78821 5.62791 2.39236 4.21298 3.44244 3.1629C4.49252 2.11282 5.90746 1.50867 7.39215 1.47645C8.87684 1.44424 10.3166 1.98645 11.4113 2.99C12.5059 3.99355 13.1708 5.38095 13.2674 6.86285C13.364 8.34474 12.8847 9.80671 11.9296 10.9438L14.6296 13.6438C14.6769 13.6904 14.7144 13.7458 14.74 13.807C14.7656 13.8681 14.7788 13.9338 14.7788 14.0001C14.7788 14.0664 14.7656 14.132 14.74 14.1932C14.7144 14.2544 14.6769 14.3098 14.6296 14.3563ZM7.52964 12.0001C8.4691 12.0001 9.38746 11.7215 10.1686 11.1996C10.9497 10.6776 11.5585 9.93579 11.918 9.06784C12.2776 8.19989 12.3716 7.24483 12.1883 6.32342C12.0051 5.40201 11.5527 4.55564 10.8884 3.89134C10.2241 3.22704 9.37773 2.77465 8.45632 2.59137C7.53491 2.40809 6.57984 2.50215 5.71189 2.86167C4.84394 3.22119 4.10209 3.83001 3.58016 4.61114C3.05822 5.39227 2.77964 6.31064 2.77964 7.2501C2.78129 8.50937 3.28227 9.71659 4.17271 10.607C5.06315 11.4975 6.27037 11.9984 7.52964 12.0001Z" fill="#1C1C1C" fill-opacity="0.2"/>
</svg>
