<svg width="20" height="20" viewBox="0 0 20 20" fill="none" xmlns="http://www.w3.org/2000/svg">
<path d="M8.23094 15.4721C8.11375 15.3549 7.95475 15.2891 7.789 15.2891C7.62325 15.2891 7.46425 15.3549 7.34706 15.4721C7.22988 15.5893 7.164 15.7483 7.164 15.9141C7.164 16.0798 7.22988 16.2388 7.34706 16.356L9.558 18.5669C9.67519 18.6841 9.83419 18.75 9.99994 18.75C10.1657 18.75 10.3247 18.6841 10.4419 18.5669L12.6526 16.3563C12.7698 16.2391 12.8359 16.0798 12.8359 15.9141C12.8359 15.7483 12.77 15.5893 12.6528 15.4721C12.5356 15.3549 12.3766 15.2891 12.2109 15.2891C12.0451 15.2891 11.8861 15.3549 11.7689 15.4721L9.99994 17.2411L8.23094 15.4721Z" fill="#1C1C1C"/>
<path d="M9.375 12.5V18.125C9.375 18.4702 9.65481 18.75 10 18.75C10.3452 18.75 10.625 18.4702 10.625 18.125V12.5C10.625 12.1548 10.3452 11.875 10 11.875C9.65481 11.875 9.375 12.1548 9.375 12.5Z" fill="#1C1C1C"/>
<path d="M9.99994 2.75888L11.7689 4.52788C11.8861 4.64509 12.0451 4.71094 12.2109 4.71094C12.3766 4.71094 12.5356 4.64509 12.6528 4.52788C12.77 4.41067 12.8359 4.2517 12.8359 4.08594C12.8359 3.92017 12.77 3.76121 12.6528 3.64399L10.4419 1.43306C10.1978 1.18898 9.80206 1.18898 9.558 1.43306L7.34706 3.64399C7.22988 3.76121 7.164 3.92017 7.164 4.08594C7.164 4.09595 7.16425 4.10596 7.16475 4.11596C7.17219 4.27116 7.23719 4.41801 7.34706 4.52788C7.46425 4.64509 7.62325 4.71094 7.789 4.71094C7.95475 4.71094 8.11375 4.64509 8.23094 4.52788L9.99994 2.75888Z" fill="#1C1C1C"/>
<path d="M10.625 7.5V1.875C10.625 1.52982 10.3452 1.25 10 1.25C9.65481 1.25 9.375 1.52982 9.375 1.875V7.5C9.375 7.84519 9.65481 8.125 10 8.125C10.3452 8.125 10.625 7.84519 10.625 7.5Z" fill="#1C1C1C"/>
<path d="M4.53356 8.22525C4.64729 8.10856 4.71094 7.952 4.71094 7.78906C4.71094 7.62331 4.64509 7.46431 4.52788 7.34713L4.52248 7.34181C4.40578 7.22806 4.24889 7.16406 4.08594 7.16406H4.08248C3.91792 7.165 3.76036 7.23075 3.64399 7.34713L1.43306 9.55806C1.18898 9.80213 1.18898 10.1979 1.43306 10.4419L3.6438 12.6527C3.76101 12.7699 3.92017 12.8359 4.08594 12.8359C4.09672 12.8359 4.10751 12.8356 4.11828 12.8351C4.27264 12.8271 4.41857 12.7622 4.52788 12.6529C4.64509 12.5357 4.71094 12.3767 4.71094 12.2109C4.71094 12.0452 4.64509 11.8862 4.52788 11.769L2.75888 10L4.52788 8.231L4.53356 8.22525Z" fill="#1C1C1C"/>
<path d="M7.5 9.375H1.875C1.52982 9.375 1.25 9.65481 1.25 10C1.25 10.3452 1.52982 10.625 1.875 10.625H7.5C7.84519 10.625 8.125 10.3452 8.125 10C8.125 9.65481 7.84519 9.375 7.5 9.375Z" fill="#1C1C1C"/>
<path d="M15.4723 11.7688C15.3551 11.8859 15.289 12.0452 15.289 12.2109C15.289 12.2209 15.2893 12.2309 15.2898 12.2409C15.2972 12.3961 15.3622 12.543 15.4721 12.6529C15.5893 12.7701 15.7483 12.8359 15.914 12.8359C16.0798 12.8359 16.2388 12.7701 16.3559 12.6529L18.5669 10.4419C18.6841 10.3248 18.7499 10.1658 18.7499 10C18.7499 9.83425 18.6841 9.67525 18.5669 9.55806L16.3559 7.34713C16.2388 7.22994 16.0798 7.16406 15.914 7.16406C15.7483 7.16406 15.5893 7.22994 15.4721 7.34713C15.3549 7.46431 15.289 7.62331 15.289 7.78906C15.289 7.95481 15.3549 8.11381 15.4721 8.231L17.2411 10L15.4723 11.7688Z" fill="#1C1C1C"/>
<path d="M12.5 10.625H18.125C18.4702 10.625 18.75 10.3452 18.75 10C18.75 9.65481 18.4702 9.375 18.125 9.375H12.5C12.1548 9.375 11.875 9.65481 11.875 10C11.875 10.3452 12.1548 10.625 12.5 10.625Z" fill="#1C1C1C"/>
</svg>
