<svg width="20" height="20" viewBox="0 0 20 20" fill="none" xmlns="http://www.w3.org/2000/svg">
<path d="M16.25 3.75H3.75C3.41842 3.75 3.10059 3.8817 2.86606 4.11611C2.63168 4.35053 2.5 4.66848 2.5 5V13.75C2.5 14.0815 2.63168 14.3995 2.86606 14.6339C3.10059 14.8683 3.41842 15 3.75 15H7.85937L10 12.5L12.1406 15H16.25C16.5816 15 16.8994 14.8683 17.1339 14.6339C17.3683 14.3995 17.5 14.0815 17.5 13.75V5C17.5 4.66848 17.3683 4.35053 17.1339 4.11611C16.8994 3.8817 16.5816 3.75 16.25 3.75Z" fill="black" fill-opacity="0.1"/>
<path fill-rule="evenodd" clip-rule="evenodd" d="M5.77546 16.4682L9.52544 12.0932C9.63331 11.9674 9.78681 11.8896 9.95206 11.8768C10.1173 11.8641 10.2809 11.9176 10.4068 12.0254C10.4311 12.0463 10.4537 12.0689 10.4746 12.0932L14.2246 16.4682C14.4492 16.7303 14.4188 17.1249 14.1568 17.3496C14.0434 17.4466 13.8992 17.5 13.75 17.5H6.25C5.90482 17.5 5.625 17.2202 5.625 16.875C5.625 16.7258 5.67837 16.5816 5.77546 16.4682ZM10 13.4604L12.3911 16.25H7.60888L10 13.4604Z" fill="#1C1C1C"/>
<path d="M16.6919 14.1919C16.5089 14.375 16.25 14.375 16.25 14.375H15C14.6548 14.375 14.375 14.6548 14.375 15C14.375 15.3452 14.6548 15.625 15 15.625H16.25C17.0266 15.625 17.5758 15.0758 17.5758 15.0758C18.125 14.5266 18.125 13.75 18.125 13.75V5C18.125 4.22335 17.5758 3.67418 17.5758 3.67418C17.0266 3.125 16.25 3.125 16.25 3.125H3.75C2.97335 3.125 2.42417 3.67418 2.42417 3.67418C1.875 4.22335 1.875 5 1.875 5V13.75C1.875 14.5266 2.42417 15.0758 2.42417 15.0758C2.97335 15.625 3.75 15.625 3.75 15.625H5C5.34518 15.625 5.625 15.3452 5.625 15C5.625 14.6548 5.34518 14.375 5 14.375H3.75C3.49112 14.375 3.30806 14.1919 3.30806 14.1919C3.125 14.0089 3.125 13.75 3.125 13.75V5C3.125 4.74112 3.30806 4.55806 3.30806 4.55806C3.49112 4.375 3.75 4.375 3.75 4.375H16.25C16.5089 4.375 16.6919 4.55806 16.6919 4.55806C16.875 4.74112 16.875 5 16.875 5V13.75C16.875 14.0089 16.6919 14.1919 16.6919 14.1919Z" fill="#1C1C1C"/>
</svg>
