<svg width="20" height="20" viewBox="0 0 20 20" fill="none" xmlns="http://www.w3.org/2000/svg">
<path d="M3.125 16.25C2.95921 16.25 2.80029 16.1842 2.68303 16.067C2.56584 15.9497 2.5 15.7908 2.5 15.625V4.375C2.5 4.20921 2.56584 4.05029 2.68303 3.93303C2.80029 3.81584 2.95921 3.75 3.125 3.75H6.875V16.25H3.125Z" fill="black" fill-opacity="0.1"/>
<path d="M6.25 3.75V16.25C6.25 16.5952 6.52981 16.875 6.875 16.875C7.22019 16.875 7.5 16.5952 7.5 16.25V3.75C7.5 3.40482 7.22019 3.125 6.875 3.125C6.52981 3.125 6.25 3.40482 6.25 3.75Z" fill="#1C1C1C"/>
<path fill-rule="evenodd" clip-rule="evenodd" d="M1.875 4.375C1.875 4.375 1.875 3.85723 2.24112 3.49112C2.24112 3.49112 2.60723 3.125 3.125 3.125H16.875C16.875 3.125 17.3927 3.125 17.7589 3.49112C17.7589 3.49112 18.125 3.85723 18.125 4.375V15.625C18.125 15.625 18.125 16.1427 17.7589 16.5089C17.7589 16.5089 17.3928 16.875 16.875 16.875H3.125C3.125 16.875 2.60723 16.875 2.24112 16.5089C2.24112 16.5089 1.875 16.1428 1.875 15.625V4.375ZM3.125 4.375V15.625H16.875V4.375H3.125Z" fill="#1C1C1C"/>
</svg>
