<svg width="16" height="16" viewBox="0 0 16 16" fill="none" xmlns="http://www.w3.org/2000/svg">
<path d="M3.35355 5.64645C3.25978 5.5527 3.13261 5.5 3 5.5C2.86739 5.5 2.74022 5.5527 2.64645 5.64645C2.55268 5.7402 2.5 5.8674 2.5 6C2.5 6.1326 2.55268 6.2598 2.64645 6.35355L7.64645 11.3535C7.8417 11.5488 8.1583 11.5488 8.35355 11.3535L13.3535 6.35355C13.4473 6.2598 13.5 6.1326 13.5 6C13.5 5.8674 13.4473 5.7402 13.3535 5.64645C13.2598 5.5527 13.1326 5.5 13 5.5C12.8674 5.5 12.7402 5.5527 12.6465 5.64645L8 10.2929L3.35355 5.64645Z" fill="#1C1C1C"/>
</svg>
