<svg width="20" height="20" viewBox="0 0 20 20" fill="none" xmlns="http://www.w3.org/2000/svg">
<path d="M10.9375 8.4375C10.9375 10.6811 9.11862 12.5 6.875 12.5C4.63135 12.5 2.8125 10.6811 2.8125 8.4375C2.8125 6.19385 4.63135 4.375 6.875 4.375C9.11862 4.375 10.9375 6.19385 10.9375 8.4375Z" fill="black" fill-opacity="0.1"/>
<path fill-rule="evenodd" clip-rule="evenodd" d="M6.875 3.75C6.875 3.75 8.81663 3.75 10.1896 5.12294C10.1896 5.12294 11.5625 6.49587 11.5625 8.4375C11.5625 8.4375 11.5625 10.3791 10.1896 11.7521C10.1896 11.7521 8.81663 13.125 6.875 13.125C6.875 13.125 4.93338 13.125 3.56044 11.7521C3.56044 11.7521 2.1875 10.3791 2.1875 8.4375C2.1875 8.4375 2.1875 6.49588 3.56044 5.12294C3.56044 5.12294 4.93337 3.75 6.875 3.75ZM6.875 5C6.875 5 5.45114 5 4.44432 6.00682C4.44432 6.00682 3.4375 7.01363 3.4375 8.4375C3.4375 8.4375 3.4375 9.86137 4.44432 10.8682C4.44432 10.8682 5.45114 11.875 6.875 11.875C6.875 11.875 8.29888 11.875 9.30569 10.8682C9.30569 10.8682 10.3125 9.86137 10.3125 8.4375C10.3125 8.4375 10.3125 7.01363 9.30569 6.00682C9.30569 6.00682 8.29887 5 6.875 5Z" fill="#1C1C1C"/>
<path d="M15.6728 10.8682C14.6659 11.875 13.2421 11.875 13.2421 11.875C12.8969 11.875 12.6171 12.1548 12.6171 12.5C12.6171 12.8452 12.8969 13.125 13.2421 13.125C15.1837 13.125 16.5566 11.7521 16.5566 11.7521C17.9296 10.3791 17.9296 8.4375 17.9296 8.4375C17.9296 6.49587 16.5566 5.12294 16.5566 5.12294C15.1837 3.75 13.2421 3.75 13.2421 3.75C12.5975 3.75196 11.9773 3.92013 11.9773 3.92013C11.7049 3.99399 11.5155 4.24127 11.5155 4.52344L11.5156 4.52986C11.5161 4.58296 11.5234 4.63578 11.5373 4.68704C11.6111 4.95937 11.8583 5.14844 12.1405 5.14844L12.1469 5.14841C12.2 5.14786 12.2529 5.14055 12.3041 5.12664C12.7657 5.00149 13.2421 5 13.2421 5C14.6659 5 15.6728 6.00682 15.6728 6.00682C16.6796 7.01363 16.6796 8.4375 16.6796 8.4375C16.6796 9.86137 15.6728 10.8682 15.6728 10.8682Z" fill="#1C1C1C"/>
<path d="M9.75625 13.8284C11.1109 14.5322 11.9886 15.7812 11.9886 15.7812C12.1057 15.9478 12.2964 16.0469 12.5 16.0469C12.507 16.0469 12.514 16.0468 12.5209 16.0465C12.6424 16.0424 12.7599 16.0031 12.8594 15.9332C12.995 15.8379 13.0872 15.6926 13.1157 15.5293C13.1219 15.4938 13.125 15.4579 13.125 15.4219L13.1249 15.4084C13.1222 15.2844 13.0827 15.1639 13.0114 15.0625C11.9581 13.5637 10.3325 12.7192 10.3325 12.7192C8.70687 11.8747 6.875 11.8747 6.875 11.8747C5.04312 11.8747 3.41751 12.7192 3.41751 12.7192C1.79198 13.5636 0.73875 15.0623 0.73875 15.0623C0.664794 15.1676 0.625 15.2933 0.625 15.4219C0.625 15.4363 0.6255 15.4508 0.626506 15.4652C0.639556 15.653 0.736594 15.8249 0.89065 15.9332C0.995888 16.0072 1.12138 16.0469 1.25 16.0469H1.25187C1.28728 16.0468 1.32261 16.0436 1.35749 16.0376C1.52078 16.009 1.66606 15.9168 1.76136 15.7812C2.63908 14.5322 3.99376 13.8284 3.99376 13.8284C5.34843 13.1247 6.875 13.1247 6.875 13.1247C8.40156 13.1247 9.75625 13.8284 9.75625 13.8284Z" fill="#1C1C1C"/>
<path d="M18.3553 15.7805C18.4723 15.9472 18.6635 16.0469 18.8672 16.0469C18.8741 16.0469 18.8809 16.0467 18.8878 16.0466C19.0092 16.0425 19.1268 16.0032 19.2262 15.9334C19.3929 15.8164 19.4922 15.6256 19.4922 15.4219C19.4922 15.415 19.4921 15.4081 19.4919 15.4013C19.4878 15.2799 19.4486 15.1623 19.3788 15.0628C19.3783 15.0622 19.3779 15.0616 19.3779 15.0616C18.3254 13.5628 16.7001 12.7185 16.7001 12.7185C15.0743 11.8739 13.2422 11.875 13.2422 11.875C13.0764 11.8751 12.9171 11.9411 12.8 12.0583C12.6829 12.1755 12.6172 12.3344 12.6172 12.5C12.6174 12.8451 12.8972 13.125 13.2422 13.125C14.7688 13.1241 16.1239 13.8277 16.1239 13.8277C17.4783 14.5313 18.3553 15.7805 18.3553 15.7805Z" fill="#1C1C1C"/>
</svg>
