<svg width="20" height="20" viewBox="0 0 20 20" fill="none" xmlns="http://www.w3.org/2000/svg">
<path d="M17.5 10C17.5 14.1421 14.1421 17.5 10 17.5C5.85785 17.5 2.5 14.1421 2.5 10C2.5 5.85787 5.85785 2.5 10 2.5C14.1421 2.5 17.5 5.85787 17.5 10Z" fill="black" fill-opacity="0.1"/>
<path fill-rule="evenodd" clip-rule="evenodd" d="M10 6.25C10 6.25 11.5533 6.25 12.6516 7.34837C12.6516 7.34837 13.75 8.44669 13.75 10C13.75 10 13.75 11.5533 12.6516 12.6516C12.6516 12.6516 11.5533 13.75 10 13.75C10 13.75 8.44669 13.75 7.34837 12.6516C7.34837 12.6516 6.25 11.5533 6.25 10C6.25 10 6.25 8.44669 7.34837 7.34837C7.34837 7.34837 8.44669 6.25 10 6.25ZM10 7.5C10 7.5 8.96444 7.5 8.23225 8.23225C8.23225 8.23225 7.5 8.96444 7.5 10C7.5 10 7.5 11.0356 8.23225 11.7677C8.23225 11.7677 8.96444 12.5 10 12.5C10 12.5 11.0356 12.5 11.7677 11.7677C11.7677 11.7677 12.5 11.0356 12.5 10C12.5 10 12.5 8.96444 11.7677 8.23225C11.7677 8.23225 11.0356 7.5 10 7.5Z" fill="#1C1C1C"/>
<path d="M13.75 10V6.87501C13.75 6.52982 13.4701 6.25001 13.125 6.25001C12.7798 6.25001 12.5 6.52982 12.5 6.87501V10C12.5 11.5717 13.102 12.5399 13.102 12.5399C13.8544 13.75 15.3125 13.75 15.3125 13.75C16.7706 13.75 17.5229 12.5399 17.5229 12.5399C18.125 11.5717 18.125 10 18.125 10C18.1243 7.20645 16.4061 5.00405 16.4061 5.00405C14.6879 2.80162 11.9786 2.12137 11.9786 2.12137C9.26932 1.44112 6.7145 2.57068 6.7145 2.57068C4.15967 3.70023 2.83955 6.16199 2.83955 6.16199C1.51944 8.62376 1.99219 11.3768 1.99219 11.3768C2.46494 14.13 4.53067 16.0103 4.53067 16.0103C6.59638 17.8906 9.38169 18.1032 9.38169 18.1032C12.1666 18.3158 14.4936 16.771 14.4936 16.771C14.6681 16.6552 14.7734 16.4594 14.7734 16.25L14.7734 16.2456C14.7726 16.1241 14.7363 16.0055 14.6691 15.9043C14.5533 15.7299 14.3578 15.625 14.1484 15.625H14.144C14.0225 15.6259 13.9039 15.6621 13.8027 15.7293C11.8336 17.0367 9.47682 16.8568 9.47682 16.8568C7.12 16.6769 5.3721 15.0859 5.3721 15.0859C3.62417 13.4948 3.22415 11.1653 3.22415 11.1653C2.82414 8.83576 3.94116 6.7527 3.94116 6.7527C5.05818 4.6697 7.21994 3.71392 7.21994 3.71392C9.38169 2.75814 11.6742 3.33374 11.6742 3.33374C13.9667 3.90933 15.4206 5.77293 15.4206 5.77293C16.8744 7.63651 16.875 10 16.875 10C16.875 11.2148 16.4614 11.88 16.4614 11.88C16.0759 12.5 15.3125 12.5 15.3125 12.5C14.5491 12.5 14.1636 11.88 14.1636 11.88C13.75 11.2148 13.75 10 13.75 10Z" fill="#1C1C1C"/>
</svg>
