<svg width="20" height="20" viewBox="0 0 20 20" fill="none" xmlns="http://www.w3.org/2000/svg">
<path d="M7.5 18.75L8.75 12.5L3.75 10.625L12.5 1.25L11.25 7.5L16.25 9.375L7.5 18.75Z" fill="black" fill-opacity="0.1"/>
<path fill-rule="evenodd" clip-rule="evenodd" d="M16.7069 9.80144L7.95694 19.1764C7.84381 19.2976 7.68719 19.3689 7.52156 19.3746C7.35587 19.3804 7.19475 19.32 7.07356 19.2069C6.91519 19.0591 6.84462 18.8398 6.88712 18.6274L8.03287 12.8986L3.53055 11.2102C3.37534 11.152 3.24961 11.0346 3.18102 10.8836C3.11243 10.7327 3.10659 10.5607 3.16479 10.4056C3.19357 10.3288 3.23717 10.2585 3.29309 10.1986L12.0431 0.823556C12.2786 0.571209 12.6741 0.557571 12.9264 0.793093C13.0848 0.940893 13.1554 1.16016 13.1129 1.37257L11.9671 7.10144L16.4694 8.78981C16.6247 8.848 16.7504 8.9655 16.819 9.11637C16.8876 9.26725 16.8934 9.43925 16.8352 9.59444C16.8064 9.67119 16.7628 9.74156 16.7069 9.80144ZM8.54437 16.7151L15.1552 9.63194L11.0306 8.08519C10.7436 7.97762 10.5771 7.67787 10.6371 7.37744L11.4556 3.28496L4.84476 10.3681L8.96944 11.9148C9.25637 12.0224 9.42294 12.3221 9.36287 12.6226L8.54437 16.7151Z" fill="#1C1C1C"/>
</svg>
