<svg width="20" height="20" viewBox="0 0 20 20" fill="none" xmlns="http://www.w3.org/2000/svg">
<path d="M12.1875 3.125H16.5625V16.25H12.1875V3.125Z" fill="black" fill-opacity="0.1"/>
<path d="M17.8125 15.625H2.1875C1.84232 15.625 1.5625 15.9048 1.5625 16.25C1.5625 16.5952 1.84232 16.875 2.1875 16.875H17.8125C18.1577 16.875 18.4375 16.5952 18.4375 16.25C18.4375 15.9048 18.1577 15.625 17.8125 15.625Z" fill="#1C1C1C"/>
<path d="M8.4375 7.5H12.1875C12.5327 7.5 12.8125 7.22019 12.8125 6.875C12.8125 6.52981 12.5327 6.25 12.1875 6.25H7.8125C7.46731 6.25 7.1875 6.52981 7.1875 6.875V16.25C7.1875 16.5952 7.46731 16.875 7.8125 16.875C8.15769 16.875 8.4375 16.5952 8.4375 16.25V7.5Z" fill="#1C1C1C"/>
<path fill-rule="evenodd" clip-rule="evenodd" d="M11.5625 16.25V3.125C11.5625 2.77982 11.8423 2.5 12.1875 2.5H16.5625C16.9077 2.5 17.1875 2.77982 17.1875 3.125V16.25C17.1875 16.5952 16.9077 16.875 16.5625 16.875H12.1875C11.8423 16.875 11.5625 16.5952 11.5625 16.25ZM15.9375 15.625H12.8125V3.75H15.9375V15.625Z" fill="#1C1C1C"/>
<path d="M4.0625 11.25H7.8125C8.15769 11.25 8.4375 10.9702 8.4375 10.625C8.4375 10.2798 8.15769 10 7.8125 10H3.4375C3.09232 10 2.8125 10.2798 2.8125 10.625V16.25C2.8125 16.5952 3.09232 16.875 3.4375 16.875C3.78268 16.875 4.0625 16.5952 4.0625 16.25V11.25Z" fill="#1C1C1C"/>
</svg>
