<svg width="20" height="20" viewBox="0 0 20 20" fill="none" xmlns="http://www.w3.org/2000/svg">
<path d="M12.5 3.125C12.9058 3.66593 13.125 4.32381 13.125 5V5.625H6.875V5C6.875 4.32381 7.09425 3.66593 7.5 3.125H4.375C4.20929 3.125 4.05029 3.19084 3.93311 3.30803C3.81592 3.42529 3.75 3.58421 3.75 3.75V16.875C3.75 17.0408 3.81592 17.1997 3.93311 17.317C4.05029 17.4342 4.20929 17.5 4.375 17.5H15.625C15.7907 17.5 15.9497 17.4342 16.0669 17.317C16.1841 17.1997 16.25 17.0408 16.25 16.875V3.75C16.25 3.58421 16.1841 3.42529 16.0669 3.30803C15.9497 3.19084 15.7907 3.125 15.625 3.125H12.5Z" fill="black" fill-opacity="0.1"/>
<path d="M7.5 12.5H12.5C12.8452 12.5 13.125 12.2202 13.125 11.875C13.125 11.5298 12.8452 11.25 12.5 11.25H7.5C7.15481 11.25 6.875 11.5298 6.875 11.875C6.875 12.2202 7.15481 12.5 7.5 12.5Z" fill="#1C1C1C"/>
<path d="M7.5 10H12.5C12.8452 10 13.125 9.72019 13.125 9.375C13.125 9.02981 12.8452 8.75 12.5 8.75H7.5C7.15481 8.75 6.875 9.02981 6.875 9.375C6.875 9.72019 7.15481 10 7.5 10Z" fill="#1C1C1C"/>
<path d="M4.375 3.75H7.5C7.84519 3.75 8.125 3.47018 8.125 3.125C8.125 2.77982 7.84519 2.5 7.5 2.5H4.375C3.85723 2.5 3.49112 2.86612 3.49112 2.86612C3.125 3.23223 3.125 3.75 3.125 3.75V16.875C3.125 17.3928 3.49112 17.7589 3.49112 17.7589C3.85723 18.125 4.375 18.125 4.375 18.125H15.625C16.1428 18.125 16.5089 17.7589 16.5089 17.7589C16.875 17.3927 16.875 16.875 16.875 16.875V3.75C16.875 3.23223 16.5089 2.86612 16.5089 2.86612C16.1427 2.5 15.625 2.5 15.625 2.5H12.5C12.1548 2.5 11.875 2.77982 11.875 3.125C11.875 3.47018 12.1548 3.75 12.5 3.75H15.625V16.875H4.375V3.75Z" fill="#1C1C1C"/>
<path fill-rule="evenodd" clip-rule="evenodd" d="M6.875 6.25C6.52981 6.25 6.25 5.97018 6.25 5.625V5C6.25 5 6.25 3.4467 7.34837 2.34835C7.34837 2.34835 8.44669 1.25 10 1.25C10 1.25 11.5533 1.25 12.6516 2.34835C12.6516 2.34835 13.75 3.4467 13.75 5V5.625C13.75 5.97018 13.4702 6.25 13.125 6.25H6.875ZM11.7677 3.23223C11.7677 3.23223 12.5 3.96447 12.5 5H7.5C7.5 5 7.5 3.96447 8.23225 3.23223C8.23225 3.23223 8.96444 2.5 10 2.5C10 2.5 11.0356 2.5 11.7677 3.23223Z" fill="#1C1C1C"/>
</svg>
