<svg width="25" height="24" viewBox="0 0 25 24" fill="none" xmlns="http://www.w3.org/2000/svg">
<g clip-path="url(#clip0_1_637)">
<path d="M21.3 6.75L18.6263 15.4416C18.5319 15.7482 18.3416 16.0165 18.0834 16.207C17.8253 16.3975 17.5127 16.5002 17.1918 16.5H8.18159C7.85558 16.5001 7.53841 16.3941 7.27808 16.1978C7.01774 16.0016 6.82842 15.7259 6.73877 15.4125L4.26471 6.75H21.3Z" fill="#1C1C1C" fill-opacity="0.1"/>
<path d="M9.30005 20.25C9.30005 20.5467 9.21208 20.8367 9.04725 21.0834C8.88243 21.33 8.64816 21.5223 8.37408 21.6358C8.09999 21.7494 7.79839 21.7791 7.50741 21.7212C7.21644 21.6633 6.94917 21.5204 6.73939 21.3107C6.52961 21.1009 6.38675 20.8336 6.32887 20.5426C6.27099 20.2517 6.3007 19.9501 6.41423 19.676C6.52776 19.4019 6.72002 19.1676 6.9667 19.0028C7.21337 18.838 7.50338 18.75 7.80005 18.75C8.19787 18.75 8.57941 18.908 8.86071 19.1893C9.14201 19.4706 9.30005 19.8522 9.30005 20.25ZM17.55 18.75C17.2533 18.75 16.9633 18.838 16.7166 19.0028C16.47 19.1676 16.2777 19.4019 16.1642 19.676C16.0506 19.9501 16.0209 20.2517 16.0788 20.5426C16.1367 20.8336 16.2796 21.1009 16.4893 21.3107C16.6991 21.5204 16.9664 21.6633 17.2574 21.7212C17.5483 21.7791 17.8499 21.7494 18.124 21.6358C18.3981 21.5223 18.6324 21.33 18.7972 21.0834C18.962 20.8367 19.05 20.5467 19.05 20.25C19.05 19.8522 18.892 19.4706 18.6107 19.1893C18.3294 18.908 17.9478 18.75 17.55 18.75ZM22.0172 6.97031L19.3425 15.6619C19.2024 16.1226 18.9175 16.5259 18.5301 16.812C18.1427 17.0981 17.6734 17.2517 17.1919 17.25H8.18161C7.69315 17.2482 7.21842 17.0882 6.82853 16.7939C6.43863 16.4997 6.15454 16.087 6.0188 15.6178L2.62692 3.75H1.05005C0.851137 3.75 0.660371 3.67098 0.519719 3.53033C0.379066 3.38968 0.300049 3.19891 0.300049 3C0.300049 2.80109 0.379066 2.61032 0.519719 2.46967C0.660371 2.32902 0.851137 2.25 1.05005 2.25H2.62692C2.95262 2.25108 3.26921 2.35761 3.5293 2.55365C3.78939 2.74969 3.979 3.0247 4.06974 3.3375L4.83005 6H21.3C21.4174 5.99996 21.5331 6.02746 21.6379 6.08029C21.7427 6.13313 21.8336 6.20982 21.9034 6.30421C21.9732 6.39859 22.0198 6.50803 22.0396 6.62372C22.0593 6.73941 22.0517 6.85812 22.0172 6.97031ZM20.2847 7.5H5.25849L7.46067 15.2062C7.50548 15.3629 7.60007 15.5007 7.73014 15.5988C7.86021 15.6969 8.01869 15.75 8.18161 15.75H17.1919C17.3524 15.7501 17.5086 15.6986 17.6377 15.6033C17.7668 15.508 17.8619 15.3737 17.9091 15.2203L20.2847 7.5Z" fill="#1C1C1C"/>
</g>
<defs>
<clipPath id="clip0_1_637">
<rect width="24" height="24" fill="white" transform="translate(0.300049)"/>
</clipPath>
</defs>
</svg>
