<svg width="20" height="20" viewBox="0 0 20 20" fill="none" xmlns="http://www.w3.org/2000/svg">
<path fill-rule="evenodd" clip-rule="evenodd" d="M2.5 3.75C2.5 3.75 2.5 3.23223 2.86612 2.86612C2.86612 2.86612 3.23223 2.5 3.75 2.5H16.25C16.25 2.5 16.7677 2.5 17.1339 2.86612C17.1339 2.86612 17.5 3.23223 17.5 3.75V16.25C17.5 16.25 17.5 16.7677 17.1339 17.1339C17.1339 17.1339 16.7678 17.5 16.25 17.5H3.75C3.75 17.5 3.23223 17.5 2.86612 17.1339C2.86612 17.1339 2.5 16.7678 2.5 16.25V3.75ZM3.75 3.75V16.25H16.25V3.75H3.75Z" fill="#1C1C1C"/>
<path d="M14.0089 13.125H16.875C17.2202 13.125 17.5 12.8452 17.5 12.5C17.5 12.1548 17.2202 11.875 16.875 11.875H14.0078C13.7626 11.8741 13.5337 11.9681 13.5337 11.9681C13.3049 12.0621 13.1294 12.2367 13.1294 12.2367L11.6161 13.75H8.38387L6.87163 12.2378C6.69513 12.0621 6.46631 11.9681 6.46631 11.9681C6.23741 11.8741 5.98999 11.875 5.98999 11.875H3.125C2.77982 11.875 2.5 12.1548 2.5 12.5C2.5 12.8452 2.77982 13.125 3.125 13.125H5.99111L7.50444 14.6384C7.67988 14.8129 7.90869 14.9069 7.90869 14.9069C8.13756 15.0009 8.38281 15 8.38281 15H11.615C11.8624 15.0009 12.0913 14.9069 12.0913 14.9069C12.3201 14.8129 12.4966 14.6373 12.4966 14.6373L14.0089 13.125Z" fill="#1C1C1C"/>
</svg>
