<svg width="20" height="20" viewBox="0 0 20 20" fill="none" xmlns="http://www.w3.org/2000/svg">
<path fill-rule="evenodd" clip-rule="evenodd" d="M10 8.75C10 8.75 10.9061 8.75 11.5468 9.39069C11.5468 9.39069 12.1875 10.0314 12.1875 10.9375C12.1875 10.9375 12.1875 11.8436 11.5468 12.4843C11.5468 12.4843 10.9061 13.125 10 13.125C10 13.125 9.09394 13.125 8.45319 12.4843C8.45319 12.4843 7.8125 11.8436 7.8125 10.9375C7.8125 10.9375 7.8125 10.0314 8.45319 9.39069C8.45319 9.39069 9.09394 8.75 10 8.75ZM10 10C10 10 9.61169 10 9.33706 10.2746C9.33706 10.2746 9.0625 10.5492 9.0625 10.9375C9.0625 10.9375 9.0625 11.3258 9.33706 11.6004C9.33706 11.6004 9.61169 11.875 10 11.875C10 11.875 10.3883 11.875 10.6629 11.6004C10.6629 11.6004 10.9375 11.3258 10.9375 10.9375C10.9375 10.9375 10.9375 10.5492 10.6629 10.2746C10.6629 10.2746 10.3883 10 10 10Z" fill="#1C1C1C"/>
<path d="M9.375 12.5V14.375C9.375 14.7202 9.65481 15 10 15C10.3452 15 10.625 14.7202 10.625 14.375V12.5C10.625 12.1548 10.3452 11.875 10 11.875C9.65481 11.875 9.375 12.1548 9.375 12.5Z" fill="#1C1C1C"/>
<path fill-rule="evenodd" clip-rule="evenodd" d="M2.5 7.5C2.5 7.5 2.5 6.98225 2.86612 6.61613C2.86612 6.61613 3.23223 6.25 3.75 6.25H16.25C16.25 6.25 16.7677 6.25 17.1339 6.61613C17.1339 6.61613 17.5 6.98225 17.5 7.5V16.25C17.5 16.25 17.5 16.7677 17.1339 17.1339C17.1339 17.1339 16.7678 17.5 16.25 17.5H3.75C3.75 17.5 3.23223 17.5 2.86612 17.1339C2.86612 17.1339 2.5 16.7678 2.5 16.25V7.5ZM3.75 7.5V16.25H16.25V7.5H3.75Z" fill="#1C1C1C"/>
<path d="M12.1875 4.0625V6.875C12.1875 7.22019 12.4673 7.5 12.8125 7.5C13.1577 7.5 13.4375 7.22019 13.4375 6.875V4.0625C13.4375 2.63864 12.4307 1.63182 12.4307 1.63182C11.4239 0.625 10 0.625 10 0.625C8.57613 0.625 7.56931 1.63182 7.56931 1.63182C6.5625 2.63864 6.5625 4.0625 6.5625 4.0625V6.875C6.5625 7.22019 6.84231 7.5 7.1875 7.5C7.53269 7.5 7.8125 7.22019 7.8125 6.875V4.0625C7.8125 3.15641 8.45319 2.51571 8.45319 2.51571C9.09394 1.875 10 1.875 10 1.875C10.9061 1.875 11.5468 2.51571 11.5468 2.51571C12.1875 3.15641 12.1875 4.0625 12.1875 4.0625Z" fill="#1C1C1C"/>
</svg>
