<svg width="16" height="16" viewBox="0 0 16 16" fill="none" xmlns="http://www.w3.org/2000/svg">
<path fill-rule="evenodd" clip-rule="evenodd" d="M7.54512 10.3922L2 12L3.3802 6.3939L5.102 8.0468L7.87931 5.1537C7.97359 5.0555 8.10385 5 8.24 5C8.37615 5 8.50641 5.0555 8.60069 5.1537L10.64 7.27801L13.6393 4.1537C13.8305 3.9545 14.1471 3.9481 14.3463 4.1393C14.5455 4.3305 14.5519 4.6471 14.3607 4.8463L11.0007 8.34627C10.9064 8.44448 10.7762 8.5 10.64 8.5C10.5039 8.5 10.3736 8.44448 10.2793 8.34627L8.24 6.22199L5.8234 8.73933L7.54512 10.3922Z" fill="#1C1C1C"/>
</svg>
