<svg width="624" height="203" viewBox="0 0 624 203" fill="none" xmlns="http://www.w3.org/2000/svg">
<path d="M232.5 8.43903C251.118 8.43903 269.294 14.1149 284.604 24.7099C299.913 35.3049 311.629 50.3154 318.189 67.7398C324.749 85.1642 325.841 104.174 321.32 122.236C316.799 140.297 306.879 156.55 292.884 168.829L271.75 144.739C280.847 136.758 287.294 126.193 290.233 114.453C293.172 102.714 292.462 90.3571 288.198 79.0312C283.934 67.7053 276.319 57.9485 266.367 51.0618C256.416 44.175 244.602 40.4857 232.5 40.4857V8.43903Z" fill="#BAEDBD" stroke="white" stroke-width="2"/>
<path d="M292.884 168.829C276.479 183.221 255.473 191.281 233.652 191.555C211.83 191.83 190.628 184.301 173.867 170.326L194.388 145.712C205.283 154.796 219.065 159.69 233.249 159.511C247.433 159.333 261.086 154.094 271.75 144.739L292.884 168.829Z" fill="#C6C7F8" stroke="white" stroke-width="2"/>
<path d="M173.867 170.326C162.458 160.814 153.535 148.67 147.867 134.94C142.199 121.211 139.957 106.308 141.333 91.5188C142.709 76.7292 147.662 62.4964 155.765 50.0481C163.869 37.5999 174.879 27.3099 187.846 20.066L203.475 48.0432C195.046 52.7517 187.89 59.4402 182.623 67.5316C177.355 75.6229 174.136 84.8743 173.241 94.4875C172.347 104.101 173.805 113.787 177.489 122.711C181.173 131.636 186.973 139.53 194.388 145.712L173.867 170.326Z" fill="#1C1C1C" stroke="white" stroke-width="2"/>
<path d="M187.846 20.066C201.489 12.4444 216.856 8.44175 232.484 8.43903L232.49 40.4854C222.332 40.4871 212.343 43.0889 203.475 48.0429L187.846 20.066Z" fill="#95A4FC" stroke="white" stroke-width="2"/>
</svg>
