<svg width="20" height="20" viewBox="0 0 20 20" fill="none" xmlns="http://www.w3.org/2000/svg">
<path d="M2.62505 11.375C2.53983 10.9217 2.49794 10.4612 2.50008 10C2.49909 8.44887 2.97951 6.93575 3.87513 5.66932C4.77074 4.40285 6.0373 3.44566 7.50007 2.92969V8.55469L2.62505 11.375Z" fill="black" fill-opacity="0.1"/>
<path d="M10.625 10V2.5C10.625 2.15482 10.3452 1.875 10 1.875C9.65481 1.875 9.375 2.15482 9.375 2.5V10C9.375 10.3452 9.65481 10.625 10 10.625C10.3452 10.625 10.625 10.3452 10.625 10Z" fill="#1C1C1C"/>
<path d="M3.19555 13.2085C3.05202 13.2914 2.94683 13.4282 2.90396 13.5884C2.88984 13.6411 2.88269 13.6954 2.88269 13.75C2.88269 13.7566 2.8828 13.7633 2.88301 13.7698C2.88628 13.8728 2.91495 13.9734 2.96649 14.0626C3.07815 14.2559 3.28445 14.375 3.50769 14.375C3.5174 14.375 3.52711 14.3747 3.53681 14.3743C3.63659 14.3697 3.7338 14.3412 3.8203 14.2912L16.8047 6.79119C16.998 6.67956 17.1171 6.47325 17.1171 6.25C17.1171 6.24029 17.1168 6.23059 17.1164 6.22089C17.1118 6.12111 17.0833 6.02389 17.0333 5.93739C16.9504 5.79386 16.8138 5.68913 16.6537 5.64626C16.601 5.63215 16.5466 5.625 16.4921 5.625C16.4854 5.625 16.4789 5.62511 16.4723 5.62531C16.3693 5.62858 16.2687 5.65726 16.1794 5.70879L3.19555 13.2085Z" fill="#1C1C1C"/>
<path fill-rule="evenodd" clip-rule="evenodd" d="M7.81304 9.09569L2.93804 11.916C2.79456 11.999 2.62398 12.0216 2.46383 11.9789C2.30368 11.9361 2.16708 11.8314 2.08407 11.688C2.04866 11.6268 2.0239 11.56 2.01083 11.4906C2.01083 11.4906 1.8716 10.7503 1.87506 9.99713C1.87506 9.99713 1.87341 7.41738 3.36483 5.30844C3.36483 5.30844 4.85624 3.19949 7.29217 2.34028C7.44848 2.28514 7.62029 2.29436 7.76986 2.36591C7.91936 2.43745 8.03436 2.56547 8.08948 2.72179C8.11304 2.78858 8.12504 2.85888 8.12504 2.92969V8.55469C8.12504 8.77781 8.00617 8.98394 7.81304 9.09569ZM3.13294 10.3591L6.87504 8.19419V3.87233C6.87504 3.87233 5.38132 4.6219 4.38541 6.03018C4.38541 6.03018 3.12367 7.81438 3.12505 10.0029C3.12505 10.0029 3.12423 10.1814 3.13294 10.3591Z" fill="#1C1C1C"/>
<path d="M6.59925 15.9755C5.00106 15.0662 4.07018 13.4805 4.07018 13.4805C3.98626 13.3375 3.849 13.2338 3.68858 13.192C3.63719 13.1786 3.5843 13.1719 3.5312 13.1719C3.52311 13.1719 3.51504 13.1721 3.50697 13.1724C3.40401 13.1763 3.30364 13.2058 3.21478 13.2579C3.02361 13.3701 2.90619 13.5752 2.90619 13.7969L2.9062 13.7987C2.90651 13.9093 2.93619 14.0179 2.9922 14.1133C4.09233 15.9873 5.9811 17.0619 5.9811 17.0619C7.86988 18.1366 10.0429 18.1249 10.0429 18.1249C12.216 18.1131 14.0931 17.0182 14.0931 17.0182C15.9701 15.9233 17.0499 14.0374 17.0499 14.0374C18.1298 12.1516 18.1241 9.97856 18.1241 9.97856C18.1183 7.80544 17.0286 5.92538 17.0286 5.92538C15.9388 4.04531 14.0559 2.96028 14.0559 2.96028C12.1731 1.87524 10 1.875 10 1.875C9.96181 1.875 9.92375 1.87849 9.88631 1.88542C9.59 1.94022 9.375 2.19861 9.37494 2.49993C9.37494 2.50996 9.37519 2.51998 9.37569 2.52995C9.38313 2.68515 9.44806 2.83201 9.55794 2.94189C9.67513 3.05911 9.83413 3.12498 9.99988 3.125C11.8385 3.12528 13.4318 4.04331 13.4318 4.04331C15.0249 4.96141 15.9471 6.55225 15.9471 6.55225C16.8692 8.14306 16.8741 9.98181 16.8741 9.98181C16.8789 11.8206 15.9652 13.4163 15.9652 13.4163C15.0515 15.0119 13.4632 15.9385 13.4632 15.9385C11.8749 16.865 10.0362 16.8749 10.0362 16.8749C8.19744 16.8848 6.59925 15.9755 6.59925 15.9755Z" fill="#1C1C1C"/>
</svg>
