<svg width="20" height="20" viewBox="0 0 20 20" fill="none" xmlns="http://www.w3.org/2000/svg">
<path d="M2.5 6.25L10 10.625L17.5 6.25L10 1.875L2.5 6.25Z" fill="black" fill-opacity="0.1"/>
<path d="M10.3149 18.6649L17.8149 14.2899C17.9581 14.2063 18.0623 14.0694 18.1044 13.9091C18.1181 13.8571 18.125 13.8037 18.125 13.75C18.125 13.7425 18.1249 13.735 18.1246 13.7275C18.1209 13.6246 18.0918 13.5241 18.0399 13.4351C17.9279 13.2431 17.7223 13.125 17.5 13.125C17.3893 13.125 17.2806 13.1544 17.1851 13.2101L10 17.4014L2.81499 13.2102C2.71934 13.1544 2.61066 13.125 2.5 13.125C2.48939 13.125 2.47877 13.1253 2.46817 13.1258C2.25748 13.1366 2.06644 13.2529 1.96014 13.4351C1.90438 13.5307 1.875 13.6393 1.875 13.75C1.875 13.7606 1.87527 13.7712 1.87581 13.7818C1.88656 13.9925 2.00286 14.1836 2.18508 14.2899L9.68506 18.6649C9.87969 18.7784 10.1203 18.7784 10.3149 18.6649Z" fill="#1C1C1C"/>
<path d="M10.3149 14.9149L17.8149 10.5399C17.9581 10.4563 18.0623 10.3194 18.1044 10.1591C18.1181 10.1071 18.125 10.0537 18.125 10C18.125 9.9925 18.1249 9.985 18.1246 9.9775C18.1209 9.87456 18.0918 9.77406 18.0399 9.68506C17.9279 9.49306 17.7223 9.375 17.5 9.375C17.3893 9.375 17.2806 9.40437 17.1851 9.46012L10 13.6514L2.81499 9.46019C2.71934 9.40438 2.61066 9.375 2.5 9.375C2.48939 9.375 2.47877 9.37525 2.46817 9.37581C2.25748 9.38656 2.06644 9.50288 1.96014 9.68506C1.90438 9.78069 1.875 9.88931 1.875 10C1.875 10.0106 1.87527 10.0212 1.87581 10.0318C1.88656 10.2425 2.00286 10.4336 2.18508 10.5399L9.68506 14.9149C9.87969 15.0284 10.1203 15.0284 10.3149 14.9149Z" fill="#1C1C1C"/>
<path fill-rule="evenodd" clip-rule="evenodd" d="M9.68503 1.33514C9.87966 1.22162 10.1203 1.22162 10.3149 1.33514L17.8149 5.71014C17.908 5.76446 17.9855 5.84196 18.0398 5.93508C18.2138 6.23324 18.113 6.61594 17.8149 6.78988L10.3149 11.1649C10.1203 11.2784 9.87966 11.2784 9.68503 11.1649L2.18506 6.78988C2.09193 6.73556 2.01444 6.65806 1.96012 6.56494C1.78619 6.26675 1.8869 5.88406 2.18506 5.71014L9.68503 1.33514ZM3.74037 6.25L9.99997 2.59856L16.2596 6.25L9.99997 9.90144L3.74037 6.25Z" fill="#1C1C1C"/>
</svg>
