<svg width="20" height="20" viewBox="0 0 20 20" fill="none" xmlns="http://www.w3.org/2000/svg">
<path d="M2.58595 5.82812C2.52934 5.92533 2.49966 6.03595 2.5 6.14841V13.8516C2.50062 13.9628 2.53052 14.072 2.58675 14.168C2.64302 14.264 2.72355 14.3435 2.82032 14.3984L9.69532 18.2656C9.788 18.3186 9.89325 18.3456 10 18.3437L10.0703 10.0001L2.58595 5.82812Z" fill="black" fill-opacity="0.1"/>
<path fill-rule="evenodd" clip-rule="evenodd" d="M18.125 13.8549V13.8568C18.125 13.8568 18.1227 14.1933 17.9526 14.4839C17.9526 14.4839 17.7819 14.7752 17.4883 14.9419L10.6111 18.8104C10.6111 18.8104 10.3308 18.9723 10 18.9723C10 18.9723 9.66925 18.9723 9.38281 18.8069L2.5139 14.9432C2.5139 14.9432 2.21809 14.7752 2.04746 14.4839C2.04746 14.4839 1.87683 14.1926 1.87501 13.8549L1.875 6.14844C1.875 6.14844 1.87682 5.80746 2.04746 5.51614C2.04746 5.51614 2.21809 5.22481 2.51168 5.05809L9.38887 1.18965C9.38887 1.18965 9.66925 1.02774 10 1.02774C10 1.02774 10.3307 1.02774 10.6172 1.19312L17.4861 5.05683C17.4861 5.05683 17.7819 5.22481 17.9526 5.51613C17.9526 5.51613 18.1232 5.80747 18.125 6.14509V13.8516V13.8549ZM16.875 6.1518V13.8482C16.875 13.8482 16.8749 13.8504 16.8739 13.8521C16.8739 13.8521 16.8736 13.8528 16.8729 13.8534C16.8724 13.8539 16.8718 13.8545 16.8711 13.8549L9.99994 17.7199L3.12682 13.8538C3.12682 13.8538 3.12695 13.8536 3.12606 13.8521C3.12606 13.8521 3.125 13.8503 3.12499 13.8482L3.125 6.14844C3.125 6.14844 3.12539 6.14904 3.12606 6.14789C3.12606 6.14789 3.12712 6.14608 3.12894 6.14505L10.0001 2.28007L16.8732 6.14628C16.8733 6.14652 16.8736 6.14724 16.8739 6.1479C16.8739 6.1479 16.875 6.1497 16.875 6.1518Z" fill="#1C1C1C"/>
<path d="M10.0673 9.28287L2.89018 5.28221C2.79714 5.23035 2.6924 5.20312 2.58588 5.20312L2.58066 5.20315C2.52463 5.20362 2.46893 5.21161 2.41503 5.22693C2.25558 5.27224 2.12066 5.37904 2.03996 5.52382C1.9881 5.61686 1.96088 5.72161 1.96088 5.82812L1.9609 5.83334C1.96136 5.88937 1.96936 5.94508 1.98468 5.99897C2.03 6.15842 2.13679 6.29337 2.28158 6.37406L9.76597 10.5459C9.95672 10.6522 10.1891 10.6513 10.379 10.5434L17.7227 6.37156C17.8668 6.28968 17.9725 6.15391 18.0165 5.99409C18.0315 5.94003 18.039 5.88421 18.039 5.82812L18.0388 5.81279C18.0363 5.70978 18.0083 5.609 17.9574 5.51941C17.8463 5.32391 17.6388 5.20312 17.414 5.20312C17.4058 5.20312 17.3976 5.20329 17.3893 5.20361C17.2895 5.20755 17.1922 5.23535 17.1053 5.28469L10.0673 9.28287Z" fill="#1C1C1C"/>
<path d="M9.375 18.3385V18.3438C9.375 18.3801 9.37819 18.4164 9.3845 18.4523C9.43681 18.7491 9.69344 18.9662 9.99475 18.9688C10.0048 18.9688 10.0148 18.9686 10.0248 18.9682C10.18 18.9621 10.3274 18.8983 10.4382 18.7894C10.5564 18.6732 10.6236 18.5148 10.625 18.349L10.6953 10.0054V10C10.6953 9.99175 10.6951 9.9835 10.6948 9.97525C10.6887 9.82 10.6249 9.67256 10.5159 9.56181C10.3998 9.44362 10.2413 9.37644 10.0756 9.375H10.0703C10.0621 9.375 10.0538 9.37519 10.0456 9.3755C9.89031 9.38163 9.74287 9.44544 9.63212 9.55437C9.51394 9.67056 9.44675 9.829 9.44531 9.99475L9.375 18.3385Z" fill="#1C1C1C"/>
</svg>
