<svg width="563" height="122" viewBox="0 0 563 122" fill="none" xmlns="http://www.w3.org/2000/svg">
<mask id="mask0_1_273" style="mask-type:luminance" maskUnits="userSpaceOnUse" x="0" y="0" width="563" height="122">
<path d="M563 0H0.031189V121.348H563V0Z" fill="white"/>
</mask>
<g mask="url(#mask0_1_273)">
<path d="M34.6377 121.349V106.18H62.5861V121.349H34.6377Z" fill="#BAEDBD" fill-opacity="0.85"/>
</g>
<mask id="mask1_1_273" style="mask-type:luminance" maskUnits="userSpaceOnUse" x="0" y="0" width="563" height="122">
<path d="M563 0H0.031189V121.348H563V0Z" fill="white"/>
</mask>
<g mask="url(#mask1_1_273)">
<path d="M127.799 121.349V15.1695H155.748V121.349H127.799Z" fill="#C6C7F8" fill-opacity="0.85"/>
</g>
<mask id="mask2_1_273" style="mask-type:luminance" maskUnits="userSpaceOnUse" x="0" y="0" width="563" height="122">
<path d="M563 0H0.031189V121.348H563V0Z" fill="white"/>
</mask>
<g mask="url(#mask2_1_273)">
<path d="M220.961 121.349V60.675H248.909V121.349H220.961Z" fill="#1C1C1C" fill-opacity="0.85"/>
</g>
<mask id="mask3_1_273" style="mask-type:luminance" maskUnits="userSpaceOnUse" x="0" y="0" width="563" height="122">
<path d="M563 0H0.031189V121.348H563V0Z" fill="white"/>
</mask>
<g mask="url(#mask3_1_273)">
<path d="M314.122 121.349V45.5065H342.071V121.349H314.122Z" fill="#B1E3FF" fill-opacity="0.85"/>
</g>
<mask id="mask4_1_273" style="mask-type:luminance" maskUnits="userSpaceOnUse" x="0" y="0" width="563" height="122">
<path d="M563 0H0.031189V121.348H563V0Z" fill="white"/>
</mask>
<g mask="url(#mask4_1_273)">
<path d="M407.284 121.349V30.338H435.232V121.349H407.284Z" fill="#95A4FC" fill-opacity="0.85"/>
</g>
<mask id="mask5_1_273" style="mask-type:luminance" maskUnits="userSpaceOnUse" x="0" y="0" width="563" height="122">
<path d="M563 0H0.031189V121.348H563V0Z" fill="white"/>
</mask>
<g mask="url(#mask5_1_273)">
<path d="M500.445 121.349V0.000976562H528.393V121.349H500.445Z" fill="#A1E3CB" fill-opacity="0.85"/>
</g>
</svg>
